<?xml version="1.0" encoding="iso-8859-1"?>
<!-- Uploaded to: SVG Repo, www.svgrepo.com, Generator: SVG Repo Mixer Tools -->
<!DOCTYPE svg PUBLIC "-//W3C//DTD SVG 1.1//EN" "http://www.w3.org/Graphics/SVG/1.1/DTD/svg11.dtd">
<svg fill="#000000" version="1.1" id="Capa_1" xmlns="http://www.w3.org/2000/svg" xmlns:xlink="http://www.w3.org/1999/xlink" 
	 width="800px" height="800px" viewBox="0 0 418.023 418.022"
	 xml:space="preserve">
<g>
	<path d="M368.291,126.845c-0.646-0.404-1.33-0.715-2.039-0.935c-0.15-0.07-0.295-0.146-0.451-0.208l-148.812-59.73V7.982
		c0-4.408-3.572-7.982-7.981-7.982c-4.407,0-7.981,3.574-7.981,7.982v58.523L50.95,144.946c-0.135,0.07-0.26,0.152-0.389,0.229
		c-0.415,0.2-0.82,0.423-1.204,0.691c-2.322,1.627-3.703,4.283-3.703,7.117v200.18c0,3.657,2.288,6.922,5.725,8.17l154.665,56.166
		c0.15,0.054,0.303,0.097,0.455,0.143c0.065,0.021,0.128,0.042,0.193,0.062c0.333,0.093,0.67,0.16,1.009,0.214
		c0.083,0.013,0.165,0.021,0.248,0.033c0.354,0.043,0.708,0.072,1.062,0.072c0.393,0,0.785-0.036,1.175-0.089
		c0.117-0.017,0.231-0.039,0.348-0.06c0.287-0.053,0.569-0.117,0.853-0.197c0.113-0.032,0.227-0.061,0.338-0.097
		c0.365-0.121,0.727-0.259,1.078-0.43l0.037-0.019c0.002-0.001,0.004-0.002,0.006-0.002l154.621-74.923
		c2.998-1.451,4.902-4.49,4.902-7.82v-200.18C372.367,131.216,370.828,128.433,368.291,126.845z M200.319,396.925l-137.28-49.852
		V165.39l137.28,49.853V396.925z M208.526,199.729L75.85,151.545L201.025,86.12v71.013l-35.591-35.591
		c-1.556-1.559-3.601-2.338-5.643-2.338c-2.042,0-4.086,0.779-5.644,2.338c-3.119,3.118-3.119,8.169,0,11.287l49.216,49.216
		c3.118,3.118,8.169,3.118,11.287,0l49.225-49.216c3.119-3.113,3.119-8.169,0.002-11.287c-3.119-3.117-8.172-3.117-11.289,0
		l-35.6,35.592V84.706l125.201,50.255L208.526,199.729z M354.984,328.942l-137.281,66.519V214.597l137.281-66.52V328.942z"/>
</g>
</svg>